<svg viewBox="0 0 400 300" xmlns="http://www.w3.org/2000/svg">
  <!-- Base octagonal platform -->
  <polygon points="80,150 140,100 260,100 320,150 320,190 260,240 140,240 80,190" 
           fill="white" stroke="#28a745" stroke-width="4"/>
  
  <!-- Sensor holes on front -->
  <circle cx="115" cy="200" r="12" fill="white" stroke="#28a745" stroke-width="3"/>
  <circle cx="155" cy="200" r="12" fill="white" stroke="#28a745" stroke-width="3"/>
  <circle cx="245" cy="200" r="12" fill="white" stroke="#28a745" stroke-width="3"/>
  <circle cx="285" cy="200" r="12" fill="white" stroke="#28a745" stroke-width="3"/>
  
  <!-- Main controller board (middle layer) -->
  <rect x="130" y="90" width="140" height="120" rx="5" fill="white" stroke="#28a745" stroke-width="3"/>
  
  <!-- Top components -->
  <rect x="145" y="60" width="110" height="80" rx="5" fill="white" stroke="#28a745" stroke-width="3"/>
  
  <!-- LEDs -->
  <circle cx="160" cy="75" r="8" fill="white" stroke="#28a745" stroke-width="2"/>
  <circle cx="240" cy="75" r="8" fill="white" stroke="#28a745" stroke-width="2"/>
  
  <!-- Central processor/module -->
  <rect x="175" y="70" width="50" height="50" rx="3" fill="white" stroke="#28a745" stroke-width="3"/>
  
  <!-- Connectors -->
  <rect x="155" y="130" width="10" height="15" fill="white" stroke="#28a745" stroke-width="2"/>
  <rect x="175" y="130" width="10" height="15" fill="white" stroke="#28a745" stroke-width="2"/>
  <rect x="215" y="130" width="10" height="15" fill="white" stroke="#28a745" stroke-width="2"/>
  <rect x="235" y="130" width="10" height="15" fill="white" stroke="#28a745" stroke-width="2"/>
  
  <!-- Wheels (implied at sides) -->
  <circle cx="90" cy="170" r="15" fill="white" stroke="#28a745" stroke-width="3"/>
  <circle cx="310" cy="170" r="15" fill="white" stroke="#28a745" stroke-width="3"/>
</svg>
